<?xml version="1.0" encoding="utf-8"?>
<!-- Generator: Adobe Illustrator 16.0.0, SVG Export Plug-In . SVG Version: 6.00 Build 0)  -->
<!DOCTYPE svg PUBLIC "-//W3C//DTD SVG 1.1//EN" "http://www.w3.org/Graphics/SVG/1.1/DTD/svg11.dtd">
<svg version="1.1" id="Layer_1" xmlns="http://www.w3.org/2000/svg" xmlns:xlink="http://www.w3.org/1999/xlink" x="0px" y="0px"
	 width="30px" height="30px" viewBox="0 0 30 30" enable-background="new 0 0 30 30" xml:space="preserve">
<circle cx="15" cy="14.988" r="14.354"/>
<path fill="#FFFFFF" d="M19.719,14.445l0.027-0.136l0.049-0.254l0.195-1.015c0,0,1.172-0.527,2.478-1.461
	c1.307-0.936,1.709-2.241,1.709-2.676s-0.113-2.096-1.886-2.096c-1.773,0-2.499,0.968-3.063,2.08
	c-0.516,1.017-1.088,4.869-1.088,4.869c-0.15,0.83-0.327,1.483-0.481,1.969l-0.054,0.144c0.004-0.003,0.008-0.007,0.012-0.011
	c-0.034,0.102-0.064,0.19-0.095,0.274l-0.016,0.002l0.099-0.266c-0.105,0.117-0.24,0.221-0.387,0.313l-0.199,0.032l-0.034,0.101
	c-0.326,0.168-0.645,0.279-0.736,0.325c-0.215,0.107-1.083,0.456-1.083,0.456c0.346-1.918,0.846-2.949,0.846-2.949l-2.106,0.602
	c-1.139,2.268-2.322,2.772-3.246,2.687s-1.848-0.838-2.203-2.708c-0.354-1.87,0.903-4.288,2.085-5.933
	c1.182-1.644,2.557-2.025,3.02-1.999c0.854,0.048,1.881,0.269,2.235,1.806c0.354,1.537-0.387,2.515-1.192,3.052
	c-0.958,0.638-1.462,0.065-1.602-0.118c-0.14-0.184-0.176-0.892-0.86-0.721c-0.193,0.049-0.494,0.397-0.247,1.226
	c0.247,0.828,1.29,1.29,2.579,1.3c1.291,0.011,2.708-0.795,3.031-3.17s-1.697-3.901-3.235-4.17
	c-1.537-0.269-3.246,0.344-4.622,1.236c-1.376,0.892-2.676,2.913-3.418,4.621c-0.741,1.709-0.333,3.74,0.119,4.75
	c0.451,1.011,1.88,1.999,3.568,2.096s3.138-1.408,3.321-1.612c0.03-0.034,0.131-0.142,0.271-0.291l-0.195,1.012
	c0,0-1.172,0.526-2.478,1.461c-1.306,0.936-1.708,2.241-1.708,2.676c0,0.437,0.112,2.097,1.886,2.097
	c1.773,0,2.499-0.968,3.063-2.08c0.349-0.688,0.724-2.672,0.93-3.885c0.002-0.001,0.642-0.195,1.542-0.623
	c0.567-0.271,0.716-0.496,0.747-0.628l0.042-0.008c-0.549,1.73-1.255,3.899-1.531,4.544c-0.436,1.017-0.436,1.774,0.193,2.032
	c0.628,0.258,1.962-0.041,2.252-1.733c0.289-1.692,0.51-2.364,0.51-2.364l0.565-2.863l3.894-0.754l0.258-0.516l-4.023,0.652
	L19.719,14.445z M12.368,21.28c-0.429,0.72-1.354,2.053-2.052,1.365s0.483-2.45,2.859-3.811
	C13.175,18.835,12.798,20.561,12.368,21.28z M20.937,9.568c0.43-0.72,1.354-2.053,2.053-1.365c0.699,0.688-0.483,2.451-2.858,3.81
	C20.131,12.014,20.506,10.289,20.937,9.568z"/>
</svg>
